<svg width="201" height="53" viewBox="0 0 201 53" fill="none" xmlns="http://www.w3.org/2000/svg">
<path d="M44.5852 15.706C37.2986 13.3273 33.4979 9.45474 31.3385 3.23112C30.139 -0.22685 29.8783 -0.0668179 34.4554 0.892085C41.888 2.44891 48.5829 7.97705 50.819 14.9263C51.2849 16.3739 51.1536 16.2344 52.3774 13.367C55.508 6.04746 60.7669 1.17127 67.9619 0.112405C70.1381 -0.207846 71.0012 0.0356756 70.2995 2.45144C68.5424 8.48439 64.2317 12.9718 57.832 15.706C53.4813 17.5646 52.7199 17.8505 52.3774 21.9434C52.1941 24.1186 52.4216 24.2825 51.5982 24.2825C50.7749 24.2825 50.9182 24.0652 50.819 22.7231C50.4579 17.8712 49.3738 17.2684 44.5852 15.706Z" fill="#2D663A"/>
<path d="M200.189 42.0415C200.189 42.5005 200.152 42.9228 200.134 43.0696H183.703C184.18 47.5492 187.393 49.8257 192.185 49.8257C195.765 49.8257 197.729 48.7976 198.904 48.3019V50.5967C197.766 51.0924 195.618 52.1572 191.946 52.1572C185.19 52.1572 181.316 47.7144 181.316 42.2435C181.316 36.7175 185.282 32.1646 190.808 32.1646C196.095 32.1646 200.189 36.2953 200.189 42.0415ZM190.9 34.4227C187.008 34.4227 184.162 36.9562 183.703 40.9767H198.004C197.674 36.8827 194.737 34.4227 190.9 34.4227Z" fill="white"/>
<path d="M176.864 50.0642C178.075 50.0642 179.214 49.8806 180.187 49.642V51.6798C179.159 51.9001 177.763 52.1204 176.405 52.1204C170.42 52.1204 170.42 47.8795 170.42 45.8601V34.6245H167.574V32.6234H170.42V26.6201H172.751V32.6234H178.755V34.6245H172.751V45.8968C172.751 48.008 172.751 50.0642 176.864 50.0642Z" fill="white"/>
<path d="M162.258 32.6235H164.443V51.6982H162.258V48.4855C160.459 50.7619 157.614 52.1572 154.364 52.1572C148.581 52.1572 144.285 47.8245 144.285 42.1701C144.285 36.4972 148.581 32.1646 154.217 32.1646C157.595 32.1646 160.459 33.725 162.258 36.13V32.6235ZM154.346 49.9909C158.495 49.9909 161.91 46.9066 161.91 42.372C161.91 37.8374 158.532 34.3309 154.236 34.3309C150.068 34.3309 146.672 37.5987 146.672 42.1701C146.672 46.7047 150.031 49.9909 154.346 49.9909Z" fill="white"/>
<path d="M137.938 25.3716H139.902V51.698H137.552V30.4937L127.455 47.0349L117.174 30.457V51.698H114.824V25.3716H116.789L127.437 42.5921L137.938 25.3716Z" fill="white"/>
<path d="M93.1036 32.1646C98.0604 32.1646 101.071 35.1754 101.071 41.2338V51.6982H98.7213V41.2338C98.7213 36.7175 96.6468 34.2207 92.8098 34.2207C89.2482 34.2207 86.4761 36.589 86.1273 41.2521V51.6982H83.7773V32.6235H86.1273V35.6711C87.651 33.4497 90.0193 32.1646 93.1036 32.1646Z" fill="white"/>
<path d="M80.2087 42.0415C80.2087 42.5005 80.172 42.9228 80.1536 43.0696H63.7226C64.1999 47.5492 67.4127 49.8257 72.2043 49.8257C75.7843 49.8257 77.7486 48.7976 78.9236 48.3019V50.5967C77.7854 51.0924 75.6374 52.1572 71.9656 52.1572C65.2096 52.1572 61.3359 47.7144 61.3359 42.2435C61.3359 36.7175 65.3014 32.1646 70.8274 32.1646C76.1147 32.1646 80.2087 36.2953 80.2087 42.0415ZM70.9192 34.4227C67.0271 34.4227 64.1815 36.9562 63.7226 40.9767H78.024C77.6936 36.8827 74.7562 34.4227 70.9192 34.4227Z" fill="white"/>
<path d="M58.9743 42.0415C58.9743 42.5005 58.9376 42.9228 58.9193 43.0696H42.4882C42.9655 47.5492 46.1783 49.8257 50.9699 49.8257C54.5499 49.8257 56.5143 48.7976 57.6892 48.3019V50.5967C56.551 51.0924 54.403 52.1572 50.7313 52.1572C43.9753 52.1572 40.1016 47.7144 40.1016 42.2435C40.1016 36.7175 44.067 32.1646 49.593 32.1646C54.8803 32.1646 58.9743 36.2953 58.9743 42.0415ZM49.6848 34.4227C45.7928 34.4227 42.9472 36.9562 42.4882 40.9767H56.7896C56.4592 36.8827 53.5218 34.4227 49.6848 34.4227Z" fill="white"/>
<path d="M37.4282 32.2378C37.8688 32.2378 38.2727 32.2745 38.5481 32.3112V34.7897C38.2176 34.7346 37.7403 34.6428 37.061 34.6428C33.2057 34.6428 30.764 37.3232 30.764 41.3437V51.6797H28.4508L28.4141 32.6233H30.764V35.8728C32.0674 33.7065 34.3623 32.2378 37.4282 32.2378Z" fill="white"/>
<path d="M23.8519 38.535V47.8429C21.5754 50.2478 18.5829 52.1572 13.8831 52.1572C5.69512 52.1572 0.205859 46.6679 0.1875 38.5533C0.205859 30.8977 5.23615 25.1147 14.1401 25.1147C18.5646 25.1147 21.4469 26.5651 22.9156 27.3178V29.9064C21.4102 29.0986 18.7482 27.4096 14.4706 27.4096C7.36576 27.4096 2.66593 31.9442 2.66593 38.5717C2.66593 45.4011 7.58607 49.844 14.2319 49.844C17.7568 49.844 20.1434 48.1733 21.6121 46.6312V40.738H13.6628V38.535H23.8519Z" fill="white"/>
</svg>
