<svg width="128" height="128" viewBox="0 0 128 128" fill="none" xmlns="http://www.w3.org/2000/svg">
<path d="M63.3711 52.8022C63.3791 53.84 63.6848 54.6766 64.2881 55.312" stroke="#325B19" stroke-width="2"/>
<path d="M64.2856 55.3118L65.1181 68.1746C65.1245 68.2267 65.1476 68.2753 65.184 68.313C65.2205 68.3508 65.2682 68.3757 65.3201 68.3839C65.3719 68.392 65.425 68.3831 65.4713 68.3584C65.5176 68.3337 65.5546 68.2946 65.5767 68.247C74.0593 48.8081 76.7742 24.5789 65.1302 5.87602C65.065 5.77285 64.9759 5.6869 64.8705 5.62543C64.765 5.56396 64.6464 5.52878 64.5245 5.52287C64.4026 5.51695 64.281 5.54047 64.1701 5.59144C64.0592 5.6424 63.9623 5.71932 63.8874 5.81569C58.8919 12.3315 56.5872 22.2501 55.9718 30.419C55.9005 31.4071 56.0876 32.3968 56.5148 33.2908L59.5314 39.5049C59.8044 40.0749 60.0265 40.6726 60.1951 41.2907L63.3685 52.802" stroke="#4D742F" stroke-width="2"/>
<path d="M64.2881 55.3119C67.4817 43.5513 68.0086 31.3803 65.8688 18.7992C65.8318 18.5714 65.7365 18.3578 65.5924 18.1799C65.4484 18.0019 65.2607 17.8659 65.0483 17.7856L64.8794 17.7253C64.8052 17.6987 64.7255 17.6912 64.6477 17.7035C64.5699 17.7157 64.4964 17.7473 64.4339 17.7953C64.3715 17.8434 64.3221 17.9063 64.2903 17.9784C64.2585 18.0505 64.2453 18.1294 64.2519 18.2079C65.3057 29.494 65.2494 40.9047 64.083 52.4401C64.0428 52.8102 63.8055 52.9308 63.3711 52.8021" stroke="#6F9B3B" stroke-width="2"/>
<path d="M41.0724 21.973C38.9245 37.792 43.908 53.9488 53.4766 66.5099C55.367 68.9875 57.5831 70.9101 60.1251 72.2776C60.2176 72.3256 60.321 72.3487 60.4251 72.3448C60.5292 72.341 60.6306 72.3102 60.7193 72.2555C60.808 72.2008 60.881 72.1241 60.9312 72.0328C60.9815 71.9416 61.0072 71.8388 61.006 71.7346C60.656 55.4089 57.4223 39.6864 46.9366 26.703C45.368 24.7644 43.6505 23.0912 41.7843 21.6834C41.7225 21.6365 41.6496 21.6064 41.5727 21.5962C41.4958 21.586 41.4176 21.596 41.3457 21.6252C41.2739 21.6544 41.2109 21.7019 41.1629 21.7629C41.115 21.8239 41.0838 21.8963 41.0724 21.973Z" stroke="#4D742F" stroke-width="2"/>
<path d="M69.1869 71.6491C69.4926 71.6169 69.8063 71.4802 70.128 71.2388C76.7525 66.2313 81.0602 58.1589 84.2215 50.0141C87.6886 41.0529 88.8711 31.7859 87.769 22.2133C87.7539 22.0876 87.7048 21.9681 87.6271 21.8681C87.5494 21.7681 87.4462 21.6913 87.3288 21.6464C87.2114 21.6014 87.0845 21.59 86.962 21.6134C86.8396 21.6368 86.7263 21.6941 86.6348 21.7789C83.0551 24.9725 80.1109 28.4838 77.8022 32.3128C77.4215 32.9392 77.1941 33.6461 77.1386 34.3762C76.3503 44.9624 75.7429 51.084 75.3166 52.7411C73.6756 59.0719 71.5479 65.258 68.9335 71.2992C68.9168 71.3392 68.9107 71.3828 68.9158 71.4259C68.9208 71.4689 68.9368 71.51 68.9622 71.5451C68.9877 71.5802 69.0216 71.6082 69.061 71.6264C69.1003 71.6446 69.1437 71.6524 69.1869 71.6491Z" stroke="#4D742F" stroke-width="2"/>
<path d="M36.51 72.6265C33.7106 77.4128 34.157 82.3157 37.8493 87.3353" stroke="#87804A" stroke-width="2"/>
<path d="M37.8477 87.3359L38.0407 89.9543" stroke="#867126" stroke-width="2"/>
<path d="M38.0384 89.9537C37.7608 97.821 38.6296 109.489 43.5286 115.715C49.9358 123.848 63.2208 124.21 72.9946 122.593C89.984 119.794 91.625 103.637 90.9614 89.6279" stroke="#87804A" stroke-width="2"/>
<path d="M90.9648 89.6287L91.3148 87.2275" stroke="#867126" stroke-width="2"/>
<path d="M91.3164 87.2267C94.5019 83.277 95.1093 78.5631 93.1384 73.085" stroke="#87804A" stroke-width="2"/>
<path d="M93.1381 73.0848C87.8691 71.6851 82.9702 70.9289 78.4413 70.8163C77.7903 70.8009 77.1525 70.9909 76.6193 71.3593L68.5469 76.9701" stroke="#745D24" stroke-width="2"/>
<path d="M68.5437 76.9712L59.4336 77.0919" stroke="#87804A" stroke-width="2"/>
<path d="M59.4339 77.0917C56.554 75.2094 54.0161 73.3592 51.82 71.5412C51.2167 71.0425 49.8934 70.8736 47.8502 71.0344C44.5038 71.308 40.723 71.8389 36.5078 72.6272" stroke="#745D24" stroke-width="2"/>
<path d="M59.4339 77.091C52.5721 77.7104 45.8954 77.1875 39.4037 75.5224C37.8834 75.1363 36.9181 74.171 36.5078 72.6265" stroke="#ECAA61" stroke-width="2"/>
<path d="M91.3136 87.2275C73.375 89.85 55.553 89.8862 37.8477 87.3361" stroke="#FEBE63" stroke-width="2"/>
<path d="M93.1381 73.085C91.2638 74.9754 88.0863 76.1498 83.6057 76.6083C76.9209 77.2921 71.9013 77.4128 68.5469 76.9703" stroke="#ECAA61" stroke-width="2"/>
<path d="M90.966 89.6279C85.4798 91.1966 79.3943 92.013 72.7096 92.0774C62.7548 92.1739 53.7533 92.6807 45.1018 91.0638C42.7609 90.6294 40.408 90.2594 38.043 89.9537" stroke="#FEBE63" stroke-width="2"/>
<path d="M46.764 33.751C46.6776 33.5271 46.5058 33.3467 46.2863 33.2495C46.0669 33.1522 45.8178 33.1461 45.5939 33.2325L45.5714 33.2412C45.3474 33.3276 45.167 33.4995 45.0698 33.7189C44.9725 33.9383 44.9665 34.1874 45.0529 34.4113L57.1722 65.8193C57.2586 66.0432 57.4304 66.2236 57.6498 66.3208C57.8693 66.4181 58.1183 66.4242 58.3423 66.3378L58.3648 66.3291C58.5887 66.2427 58.7692 66.0709 58.8664 65.8514C58.9636 65.632 58.9697 65.3829 58.8833 65.159L46.764 33.751Z" stroke="#6F9B3B" stroke-width="2"/>
<path d="M83.2926 36.7112C83.3636 36.5397 83.3636 36.3471 83.2926 36.1756C83.2216 36.0041 83.0853 35.8679 82.9139 35.7968L82.8692 35.7784C82.6977 35.7073 82.5051 35.7073 82.3336 35.7784C82.1621 35.8494 82.0258 35.9856 81.9548 36.1571L76.4322 49.49C76.3611 49.6614 76.3612 49.8541 76.4322 50.0256C76.5032 50.1971 76.6395 50.3333 76.8109 50.4043L76.8556 50.4228C77.0271 50.4938 77.2197 50.4938 77.3912 50.4228C77.5627 50.3518 77.6989 50.2155 77.77 50.044L83.2926 36.7112Z" stroke="#6F9B3B" stroke-width="2"/>
<path d="M54.4604 95.8806C54.0751 95.9136 53.7019 96.0424 53.362 96.2596C53.0221 96.4768 52.7222 96.7781 52.4794 97.1464C52.2365 97.5147 52.0556 97.9428 51.9468 98.4061C51.838 98.8695 51.8035 99.3591 51.8454 99.8469C51.9298 100.832 52.3199 101.751 52.9297 102.4C53.5396 103.05 54.3192 103.377 55.0972 103.31C55.4825 103.277 55.8557 103.149 56.1956 102.931C56.5355 102.714 56.8354 102.413 57.0782 102.044C57.3211 101.676 57.502 101.248 57.6108 100.785C57.7196 100.321 57.7541 99.8318 57.7123 99.344C57.6278 98.3587 57.2377 97.4404 56.6279 96.7908C56.018 96.1413 55.2384 95.8139 54.4604 95.8806Z" stroke="#87804A" stroke-width="2"/>
<path d="M74.6339 95.8803C73.8503 95.853 73.0852 96.218 72.5068 96.8952C71.9284 97.5724 71.5841 98.5063 71.5497 99.4913C71.5153 100.476 71.7936 101.432 72.3233 102.148C72.8531 102.864 73.5909 103.281 74.3745 103.309C75.158 103.336 75.9232 102.971 76.5016 102.294C77.0799 101.617 77.4242 100.683 77.4586 99.6976C77.493 98.7126 77.2147 97.757 76.685 97.0411C76.1552 96.3253 75.4174 95.9077 74.6339 95.8803Z" stroke="#87804A" stroke-width="2"/>
<path d="M64.4211 111.915C66.6775 111.927 72.7951 109.2 71.2989 105.894C71.1885 105.65 71.0182 105.436 70.8043 105.275C70.5904 105.113 70.3401 105.009 70.0773 104.971C69.8146 104.933 69.5481 104.964 69.3036 105.06C69.059 105.156 68.8444 105.315 68.6805 105.52C67.5221 106.968 66.412 108.488 64.4452 108.476C62.4663 108.464 61.3803 106.944 60.234 105.484C60.0718 105.278 59.8589 105.118 59.6156 105.02C59.3723 104.923 59.1067 104.89 58.8442 104.925C58.5816 104.96 58.3308 105.062 58.1158 105.221C57.9007 105.38 57.7285 105.591 57.6156 105.834C56.0832 109.116 62.1646 111.903 64.4211 111.915Z" stroke="#87804A" stroke-width="2"/>
<path d="M64.284 0C64.5736 0 64.7465 0.0201108 64.8028 0.060332C71.8858 5.45399 75.3609 16.8326 76.4107 25.5686C76.4207 25.6362 76.4485 25.7 76.4913 25.7533C76.534 25.8067 76.5902 25.8477 76.654 25.8723C76.7178 25.8968 76.787 25.904 76.8545 25.893C76.922 25.8821 76.9853 25.8534 77.0381 25.8099C77.3358 25.5686 78.1724 24.559 79.5479 22.7813C81.2855 20.5369 83.4815 18.6546 86.1361 17.1342C92.1572 13.6832 92.483 25.7013 92.4468 28.6214C92.2779 42.192 88.4569 54.568 80.9838 65.7495C80.9415 65.8151 80.9171 65.8907 80.9131 65.9687C80.9091 66.0467 80.9256 66.1244 80.961 66.194C80.9965 66.2636 81.0495 66.3227 81.1149 66.3654C81.1803 66.4081 81.2558 66.4329 81.3337 66.4373C84.6801 66.6223 87.9903 67.0205 91.2643 67.6319C101.666 69.5866 99.8435 83.1733 95.7892 89.4599C95.5544 89.8205 95.4403 90.2473 95.4634 90.6786C95.7771 96.8566 95.2342 102.902 93.8345 108.814C90.3835 123.33 78.0517 127.964 64.6339 128C51.2161 128.036 38.8602 123.475 35.3368 108.971C33.8969 103.067 33.3177 97.0255 33.5993 90.8475C33.6224 90.4162 33.5083 89.9895 33.2735 89.6288C29.183 83.3664 27.2765 69.7917 37.6777 67.7767C40.9437 67.1492 44.2498 66.7349 47.5962 66.5338C47.6742 66.5294 47.7497 66.5046 47.8151 66.4619C47.8805 66.4192 47.9335 66.3601 47.9689 66.2905C48.0043 66.2209 48.0209 66.1432 48.0169 66.0653C48.0129 65.9873 47.9885 65.9117 47.9462 65.846C40.4087 54.7048 36.5153 42.3488 36.2659 28.7782C36.2177 25.8582 36.4831 13.8401 42.5163 17.2549C45.1789 18.7591 47.3871 20.6294 49.1407 22.8657C50.5243 24.6355 51.365 25.641 51.6626 25.8823C51.7154 25.9258 51.7787 25.9545 51.8462 25.9654C51.9137 25.9764 51.9829 25.9692 52.0467 25.9447C52.1105 25.9201 52.1667 25.8791 52.2094 25.8257C52.2522 25.7724 52.28 25.7086 52.29 25.641C53.2915 16.8929 56.7063 5.50225 63.7531 0.060332C63.8094 0.0201108 63.9864 0 64.284 0ZM63.3669 52.8023C63.375 53.84 63.6807 54.6766 64.284 55.3121L65.1166 68.1749C65.1229 68.2269 65.146 68.2756 65.1825 68.3133C65.2189 68.3511 65.2667 68.376 65.3185 68.3841C65.3703 68.3923 65.4234 68.3834 65.4697 68.3587C65.516 68.334 65.553 68.2949 65.5751 68.2472C74.0577 48.8084 76.7727 24.5791 65.1286 5.87631C65.0634 5.77314 64.9743 5.68719 64.8689 5.62572C64.7635 5.56425 64.6448 5.52907 64.5229 5.52316C64.401 5.51724 64.2795 5.54076 64.1686 5.59173C64.0577 5.64269 63.9607 5.71961 63.8858 5.81598C58.8903 12.3318 56.5857 22.2503 55.9703 30.4193C55.8989 31.4074 56.0861 32.3971 56.5133 33.291L59.5298 39.5052C59.8028 40.0752 60.0249 40.6729 60.1935 41.291L63.3669 52.8023ZM41.0683 21.9728C38.9205 37.7918 43.9039 53.9486 53.4725 66.5097C55.3629 68.9873 57.5791 70.9099 60.1211 72.2774C60.2136 72.3253 60.317 72.3485 60.4211 72.3446C60.5252 72.3408 60.6266 72.31 60.7153 72.2553C60.804 72.2006 60.877 72.1239 60.9272 72.0326C60.9775 71.9414 61.0032 71.8386 61.0019 71.7344C60.652 55.4087 57.4182 39.6862 46.9326 26.7028C45.364 24.7642 43.6465 23.091 41.7803 21.6832C41.7185 21.6363 41.6456 21.6062 41.5687 21.596C41.4918 21.5858 41.4136 21.5958 41.3417 21.625C41.2698 21.6542 41.2068 21.7017 41.1589 21.7627C41.111 21.8237 41.0798 21.8961 41.0683 21.9728ZM69.1829 71.65C69.4886 71.6178 69.8023 71.481 70.1241 71.2397C76.7485 66.2322 81.0562 58.1598 84.2176 50.015C87.6847 41.0537 88.8672 31.7868 87.7651 22.2141C87.75 22.0885 87.7008 21.969 87.6231 21.869C87.5455 21.7689 87.4422 21.6922 87.3249 21.6472C87.2075 21.6023 87.0806 21.5909 86.9581 21.6143C86.8356 21.6376 86.7224 21.6949 86.6309 21.7798C83.0512 24.9733 80.107 28.4846 77.7983 32.3137C77.4176 32.94 77.1902 33.647 77.1346 34.377C76.3463 44.9632 75.739 51.0849 75.3126 52.742C73.6716 59.0728 71.5439 65.2588 68.9295 71.3C68.9129 71.3401 68.9068 71.3837 68.9118 71.4267C68.9169 71.4698 68.9329 71.5108 68.9583 71.5459C68.9837 71.581 69.0177 71.609 69.057 71.6272C69.0964 71.6455 69.1397 71.6533 69.1829 71.65ZM36.5073 72.6273C33.7079 77.4137 34.1543 82.3166 37.8466 87.3362L38.0397 89.9546C37.7622 97.8219 38.6309 109.49 43.5299 115.716C49.9371 123.849 63.2222 124.211 72.9959 122.594C89.9853 119.795 91.6263 103.638 90.9627 89.6288L91.3126 87.2276C94.4981 83.2779 95.1055 78.564 93.1346 73.0859C87.8657 71.6862 82.9667 70.93 78.4378 70.8174C77.7869 70.802 77.1491 70.992 76.6158 71.3604L68.5434 76.9712L59.4333 77.0919C56.5535 75.2095 54.0155 73.3594 51.8195 71.5414C51.2161 71.0426 49.8929 70.8737 47.8496 71.0346C44.5032 71.3081 40.7224 71.839 36.5073 72.6273Z" fill="#0F330C"/>
<path d="M64.2856 55.3118C67.4791 43.5512 68.006 31.3803 65.8662 18.7991C65.8292 18.5713 65.7339 18.3577 65.5898 18.1798C65.4458 18.0018 65.2581 17.8659 65.0457 17.7855L64.8768 17.7252C64.8026 17.6986 64.723 17.6911 64.6451 17.7034C64.5673 17.7156 64.4938 17.7472 64.4314 17.7953C64.3689 17.8433 64.3195 17.9062 64.2877 17.9783C64.2559 18.0504 64.2427 18.1293 64.2494 18.2078C65.3032 29.4939 65.2468 40.9046 64.0804 52.44C64.0402 52.8101 63.8029 52.9307 63.3685 52.802L60.1951 41.2907C60.0265 40.6726 59.8044 40.0749 59.5314 39.5049L56.5148 33.2908C56.0876 32.3968 55.9005 31.4071 55.9718 30.419C56.5872 22.2501 58.8919 12.3315 63.8874 5.81569C63.9623 5.71932 64.0592 5.6424 64.1701 5.59144C64.281 5.54047 64.4026 5.51695 64.5245 5.52287C64.6464 5.52878 64.765 5.56396 64.8705 5.62543C64.9759 5.6869 65.065 5.77285 65.1302 5.87602C76.7742 24.5789 74.0593 48.8081 65.5767 68.247C65.5546 68.2946 65.5176 68.3337 65.4713 68.3584C65.425 68.3831 65.3719 68.392 65.3201 68.3839C65.2682 68.3757 65.2205 68.3508 65.184 68.313C65.1476 68.2753 65.1245 68.2267 65.1181 68.1746L64.2856 55.3118Z" fill="#8AB451"/>
<path d="M64.2842 55.3119C63.6809 54.6764 63.3752 53.8398 63.3672 52.8021C63.8016 52.9308 64.0389 52.8102 64.0791 52.4401C65.2455 40.9047 65.3018 29.494 64.248 18.2079C64.2414 18.1294 64.2546 18.0505 64.2864 17.9784C64.3182 17.9063 64.3676 17.8434 64.43 17.7953C64.4925 17.7473 64.566 17.7157 64.6438 17.7035C64.7216 17.6912 64.8013 17.6987 64.8755 17.7253L65.0444 17.7856C65.2568 17.8659 65.4445 18.0019 65.5885 18.1799C65.7326 18.3578 65.8279 18.5714 65.8649 18.7992C68.0047 31.3803 67.4778 43.5513 64.2842 55.3119Z" fill="#548225"/>
<path d="M41.0724 21.973C41.0838 21.8963 41.115 21.8239 41.1629 21.7629C41.2109 21.7019 41.2739 21.6544 41.3457 21.6252C41.4176 21.596 41.4958 21.586 41.5727 21.5962C41.6496 21.6064 41.7225 21.6365 41.7843 21.6834C43.6505 23.0912 45.368 24.7644 46.9366 26.703C57.4223 39.6864 60.656 55.4089 61.006 71.7346C61.0072 71.8388 60.9815 71.9416 60.9312 72.0328C60.881 72.1241 60.808 72.2008 60.7193 72.2555C60.6306 72.3102 60.5292 72.341 60.4251 72.3448C60.321 72.3487 60.2176 72.3256 60.1251 72.2776C57.5831 70.9101 55.367 68.9875 53.4766 66.5099C43.908 53.9488 38.9245 37.792 41.0724 21.973ZM46.7642 33.7518C46.6778 33.5279 46.5059 33.3475 46.2865 33.2503C46.0671 33.153 45.818 33.1469 45.5941 33.2333L45.5715 33.242C45.3476 33.3284 45.1672 33.5002 45.07 33.7197C44.9727 33.9391 44.9666 34.1882 45.053 34.4121L57.1724 65.8201C57.2588 66.044 57.4306 66.2244 57.65 66.3216C57.8694 66.4189 58.1185 66.425 58.3424 66.3386L58.365 66.3299C58.5889 66.2435 58.7693 66.0716 58.8666 65.8522C58.9638 65.6328 58.9699 65.3837 58.8835 65.1598L46.7642 33.7518Z" fill="#8AB451"/>
<path d="M69.183 71.6501C69.1397 71.6534 69.0964 71.6456 69.0571 71.6274C69.0177 71.6091 68.9837 71.5812 68.9583 71.546C68.9329 71.5109 68.9169 71.4699 68.9119 71.4269C68.9068 71.3838 68.9129 71.3402 68.9296 71.3001C71.5439 65.2589 73.6716 59.0729 75.3127 52.7421C75.739 51.085 76.3464 44.9633 77.1347 34.3771C77.1902 33.6471 77.4176 32.9401 77.7983 32.3138C80.107 28.4847 83.0512 24.9734 86.6309 21.7799C86.7224 21.695 86.8357 21.6378 86.9581 21.6144C87.0806 21.591 87.2075 21.6024 87.3249 21.6473C87.4423 21.6923 87.5455 21.769 87.6232 21.8691C87.7009 21.9691 87.75 22.0886 87.7651 22.2143C88.8672 31.7869 87.6847 41.0538 84.2176 50.0151C81.0562 58.1599 76.7486 66.2323 70.1241 71.2398C69.8024 71.4812 69.4886 71.6179 69.183 71.6501ZM83.2919 36.7117C83.3629 36.5403 83.3629 36.3476 83.2919 36.1761C83.2209 36.0046 83.0846 35.8684 82.9131 35.7973L82.8685 35.7789C82.697 35.7079 82.5043 35.7079 82.3329 35.7789C82.1614 35.8499 82.0251 35.9862 81.9541 36.1576L76.4315 49.4905C76.3604 49.662 76.3604 49.8546 76.4315 50.0261C76.5025 50.1976 76.6387 50.3338 76.8102 50.4049L76.8549 50.4233C77.0264 50.4943 77.219 50.4943 77.3905 50.4233C77.562 50.3523 77.6982 50.216 77.7693 50.0446L83.2919 36.7117Z" fill="#8AB451"/>
<path d="M45.5934 33.2334L45.5709 33.2421C45.1046 33.422 44.8724 33.9459 45.0524 34.4122L57.1717 65.8201C57.3516 66.2864 57.8755 66.5186 58.3418 66.3387L58.3643 66.33C58.8306 66.15 59.0627 65.6262 58.8828 65.1599L46.7635 33.7519C46.5835 33.2856 46.0597 33.0535 45.5934 33.2334Z" fill="#548225"/>
<path d="M82.9177 35.797L82.8731 35.7786C82.516 35.6306 82.1067 35.8002 81.9587 36.1573L76.4361 49.4901C76.2882 49.8472 76.4578 50.2566 76.8149 50.4045L76.8595 50.423C77.2165 50.5709 77.6259 50.4013 77.7738 50.0443L83.2965 36.7114C83.4444 36.3543 83.2748 35.9449 82.9177 35.797Z" fill="#548225"/>
<path d="M59.4339 77.0917C52.5721 77.7112 45.8954 77.1883 39.4037 75.5231C37.8834 75.137 36.9181 74.1717 36.5078 72.6272C40.723 71.8389 44.5038 71.308 47.8502 71.0344C49.8934 70.8736 51.2167 71.0425 51.82 71.5412C54.0161 73.3592 56.554 75.2094 59.4339 77.0917Z" fill="#D8873B"/>
<path d="M93.1381 73.0862C91.2638 74.9766 88.0863 76.1511 83.6057 76.6096C76.9209 77.2934 71.9013 77.414 68.5469 76.9716L76.6193 71.3607C77.1525 70.9924 77.7903 70.8023 78.4413 70.8178C82.9702 70.9304 87.8691 71.6865 93.1381 73.0862Z" fill="#D8873B"/>
<path d="M36.51 72.6279C36.9202 74.1724 37.8855 75.1377 39.4059 75.5238C45.8976 77.189 52.5743 77.7119 59.436 77.0925L68.5461 76.9718C71.9006 77.4142 76.9202 77.2936 83.6049 76.6098C88.0856 76.1513 91.263 74.9768 93.1373 73.0864C95.1082 78.5646 94.5008 83.2785 91.3153 87.2282C73.3767 89.8506 55.5547 89.8868 37.8493 87.3368C34.157 82.3172 33.7106 77.4142 36.51 72.6279Z" fill="#FFCD87"/>
<path d="M91.3136 87.2275L90.9637 89.6287C85.4775 91.1974 79.3921 92.0139 72.7073 92.0782C62.7526 92.1747 53.7511 92.6815 45.0995 91.0646C42.7587 90.6302 40.4057 90.2602 38.0407 89.9545L37.8477 87.3361C55.553 89.8862 73.375 89.85 91.3136 87.2275Z" fill="#FCAE3F"/>
<path d="M90.9614 89.6289C91.625 103.638 89.984 119.795 72.9946 122.594C63.2208 124.211 49.9358 123.849 43.5286 115.716C38.6296 109.49 37.7608 97.8219 38.0384 89.9547C40.4034 90.2604 42.7563 90.6304 45.0972 91.0648C53.7487 92.6817 62.7502 92.1749 72.705 92.0784C79.3897 92.014 85.4752 91.1975 90.9614 89.6289ZM54.456 95.8808C54.0707 95.9139 53.6975 96.0426 53.3576 96.2598C53.0177 96.477 52.7178 96.7784 52.475 97.1467C52.2321 97.515 52.0512 97.9431 51.9424 98.4064C51.8336 98.8697 51.7991 99.3593 51.8409 99.8472C51.9254 100.832 52.3155 101.751 52.9253 102.4C53.5352 103.05 54.3148 103.377 55.0928 103.311C55.478 103.278 55.8513 103.149 56.1912 102.932C56.5311 102.714 56.831 102.413 57.0738 102.045C57.3166 101.676 57.4976 101.248 57.6064 100.785C57.7152 100.322 57.7497 99.8321 57.7078 99.3442C57.6234 98.359 57.2333 97.4406 56.6235 96.7911C56.0136 96.1416 55.2339 95.8141 54.456 95.8808ZM74.6326 95.8816C73.849 95.8542 73.0839 96.2193 72.5055 96.8965C71.9271 97.5736 71.5828 98.5075 71.5484 99.4925C71.514 100.478 71.7923 101.433 72.322 102.149C72.8518 102.865 73.5896 103.282 74.3732 103.31C75.1567 103.337 75.9219 102.972 76.5002 102.295C77.0786 101.618 77.4229 100.684 77.4573 99.6989C77.4917 98.7138 77.2134 97.7583 76.6837 97.0424C76.1539 96.3265 75.4161 95.9089 74.6326 95.8816ZM64.4154 111.915C66.6718 111.928 72.7894 109.201 71.2932 105.894C71.1828 105.65 71.0125 105.437 70.7986 105.275C70.5847 105.114 70.3344 105.009 70.0717 104.971C69.8089 104.934 69.5425 104.965 69.2979 105.061C69.0533 105.157 68.8388 105.315 68.6748 105.52C67.5164 106.968 66.4063 108.489 64.4395 108.477C62.4606 108.464 61.3747 106.944 60.2284 105.484C60.0662 105.278 59.8533 105.119 59.61 105.021C59.3666 104.923 59.1011 104.89 58.8385 104.925C58.5759 104.96 58.3252 105.062 58.1101 105.221C57.8951 105.38 57.7229 105.591 57.61 105.834C56.0776 109.116 62.159 111.903 64.4154 111.915Z" fill="#FFCD87"/>
<path d="M57.7124 99.3442C57.5366 97.2925 56.0806 95.7419 54.4605 95.8808C52.8404 96.0197 51.6697 97.7955 51.8456 99.8471C52.0215 101.899 53.4774 103.449 55.0975 103.311C56.7176 103.172 57.8883 101.396 57.7124 99.3442Z" fill="#0F330C"/>
<path d="M77.4605 99.6982C77.5321 97.6469 76.2674 95.9379 74.6357 95.8809C73.004 95.8239 71.6232 97.4406 71.5516 99.4919C71.4799 101.543 72.7446 103.252 74.3763 103.309C76.008 103.366 77.3889 101.75 77.4605 99.6982Z" fill="#0F330C"/>
<path d="M64.4413 108.476C66.4081 108.488 67.5182 106.968 68.6766 105.52C68.8405 105.315 69.0551 105.156 69.2997 105.06C69.5442 104.964 69.8107 104.933 70.0734 104.971C70.3362 105.009 70.5865 105.113 70.8004 105.275C71.0143 105.436 71.1846 105.65 71.295 105.894C72.7912 109.2 66.6736 111.927 64.4172 111.915C62.1607 111.903 56.0793 109.116 57.6117 105.834C57.7246 105.591 57.8968 105.38 58.1119 105.221C58.3269 105.062 58.5777 104.96 58.8402 104.925C59.1028 104.89 59.3684 104.923 59.6117 105.02C59.855 105.118 60.0679 105.278 60.2301 105.484C61.3764 106.944 62.4624 108.464 64.4413 108.476Z" fill="#0F330C"/>
</svg>
